<svg width="24" height="24" xmlns="http://www.w3.org/2000/svg" fill="#000000" role="img">
 <title>IBM icon</title>

 <g>
  <title>Layer 1</title>
  <path d="m0,16.144l4.667,0l0,0.668l-4.667,0l0,-0.668zm0,-1.282l4.667,0l0,0.67l-4.667,0l0,-0.67zm1.33,-1.279l2.003,0l0,0.671l-2.003,0l0,-0.671zm0,-1.278l2.003,0l0,0.67l-2.003,0l0,-0.67zm0,-1.28l2.003,0l0,0.671l-2.003,0l0,-0.671zm0,-1.281l2.003,0l0,0.671l-2.003,0l0,-0.671zm-1.33,-1.278l4.667,0l0,0.67l-4.667,0l0,-0.67zm0,-1.279l4.667,0l0,0.67l-4.667,0l0,-0.67zm5.332,8.345l7.177,0c0.12,-0.206 0.212,-0.433 0.267,-0.67l-7.443,0l0,0.67l-0.001,0zm6.618,-3.227l-5.283,0l0,0.67l5.843,0a2.67,2.67 0 0 0 -0.558,-0.67l-0.002,0zm-5.284,-1.28l0,0.671l5.285,0c0.223,-0.188 0.41,-0.414 0.559,-0.671l-5.844,0zm5.843,-2.559l-7.177,0l0,0.67l7.443,0a2.891,2.891 0 0 0 -0.266,-0.67zm-2.206,-1.279l-4.971,0l0,0.67l6.685,0a2.522,2.522 0 0 0 -1.714,-0.67zm-3.637,2.557l2,0l0,0.671l-2,0l0,-0.671zm4.001,0.671l2.092,0c0.059,-0.214 0.09,-0.44 0.09,-0.671l-2.182,0l0,0.671zm-4.001,3.168l1.999,0l0,0.671l-2,0l0.001,-0.671zm4.001,0l0,0.671l2.182,0c0,-0.23 -0.031,-0.457 -0.09,-0.671l-2.092,0zm-5.335,3.224l4.97,0.007c0.667,0 1.268,-0.257 1.717,-0.67l-6.687,0l0,0.663zm8.002,-0.663l3.332,0l0,0.668l-3.332,0l0,-0.668zm0,-1.282l3.332,0l0,0.67l-3.332,0l0,-0.67zm1.331,-1.279l2,0l0,0.671l-2,0l0,-0.671zm0,-1.278l2,0l0,0.67l-2,0l0,-0.67zm2.929,-3.839l-4.26,0l0,0.67l4.49,0l-0.23,-0.67zm-0.442,-1.279l-3.818,0l0,0.669l4.048,0l-0.23,-0.669zm3.513,8.957l3.335,0l0,0.668l-3.335,0l0,-0.668zm0,-1.282l3.335,0l0,0.67l-3.335,0l0,-0.67zm0,-1.279l2,0l0,0.671l-2,0l0,-0.671zm0,-1.278l2,0l0,0.67l-2,0l0,-0.67zm0,-0.609l2,0l0,-0.671l-3.811,0l-0.188,0.542l-0.188,-0.542l-3.813,0l0,0.671l2,0l0,-0.616l0.213,0.616l3.575,0l0.212,-0.616l0,0.616zm2.001,-1.952l-3.37,0l-0.23,0.671l3.6,0l0,-0.671zm-2.483,-2.557l-0.231,0.669l4.048,0l0,-0.669l-3.817,0zm-1.517,9.62l0.23,-0.663l-0.461,0l0.231,0.663zm-0.442,-1.275l0.884,0l0.238,-0.67l-1.357,0l0.235,0.67zm-0.449,-1.278l1.782,0l0.235,-0.671l-2.253,0l0.236,0.671zm-0.448,-1.279l2.679,0l0.229,-0.67l-3.138,0l0.23,0.67zm-2.662,-2.56l3.602,0l-0.231,-0.671l-3.371,0l0,0.671zm4.845,-1.279l4.49,0l0,-0.67l-4.262,0l-0.228,0.67z" id="svg_1" fill="#000000"/>
 </g>
</svg>