<svg xmlns="http://www.w3.org/2000/svg" viewBox="0 0 200 200">
  <path fill="#3f6a2b" d="M34.5,-62.7C45.2,-53.6,54.7,-45.3,59.6,-35C64.4,-24.7,64.6,-12.4,62.5,-1.2C60.4,10,56.2,20,52.7,32.6C49.2,45.3,46.5,60.6,37.9,65.4C29.2,70.3,14.6,64.6,1.2,62.4C-12.1,60.3,-24.3,61.7,-30.6,55.5C-36.9,49.4,-37.3,35.6,-46.8,25.1C-56.3,14.5,-74.9,7.3,-74.2,0.4C-73.5,-6.5,-53.6,-13,-44.8,-24.7C-36,-36.3,-38.2,-53.2,-32.6,-65.3C-27,-77.3,-13.5,-84.5,-0.8,-83.1C11.9,-81.7,23.8,-71.8,34.5,-62.7Z" transform="translate(100 100)"/>
</svg>